<svg width="435" height="55" viewBox="0 0 435 55" fill="none" xmlns="http://www.w3.org/2000/svg">
<rect width="435" height="55" rx="27.5" fill="#FFB800"/>
<path d="M45.23 27.124C46.0953 27.2853 46.8067 27.718 47.364 28.422C47.9213 29.126 48.2 29.9327 48.2 30.842C48.2 31.6633 47.9947 32.3893 47.584 33.02C47.188 33.636 46.6087 34.12 45.846 34.472C45.0833 34.824 44.1813 35 43.14 35H36.518V19.644H42.854C43.8953 19.644 44.79 19.8127 45.538 20.15C46.3007 20.4873 46.8727 20.9567 47.254 21.558C47.65 22.1593 47.848 22.8413 47.848 23.604C47.848 24.4987 47.606 25.2467 47.122 25.848C46.6527 26.4493 46.022 26.8747 45.23 27.124ZM39.598 25.98H42.414C43.1473 25.98 43.712 25.8187 44.108 25.496C44.504 25.1587 44.702 24.682 44.702 24.066C44.702 23.45 44.504 22.9733 44.108 22.636C43.712 22.2987 43.1473 22.13 42.414 22.13H39.598V25.98ZM42.7 32.492C43.448 32.492 44.0273 32.316 44.438 31.964C44.8633 31.612 45.076 31.1133 45.076 30.468C45.076 29.808 44.856 29.2947 44.416 28.928C43.976 28.5467 43.382 28.356 42.634 28.356H39.598V32.492H42.7ZM61.9847 28.642C61.9847 29.082 61.9554 29.478 61.8967 29.83H52.9867C53.0601 30.71 53.3681 31.3993 53.9107 31.898C54.4534 32.3967 55.1207 32.646 55.9127 32.646C57.0567 32.646 57.8707 32.1547 58.3547 31.172H61.6767C61.3247 32.3453 60.6501 33.3133 59.6527 34.076C58.6554 34.824 57.4307 35.198 55.9787 35.198C54.8054 35.198 53.7494 34.9413 52.8107 34.428C51.8867 33.9 51.1607 33.1593 50.6327 32.206C50.1194 31.2527 49.8627 30.1527 49.8627 28.906C49.8627 27.6447 50.1194 26.5373 50.6327 25.584C51.1461 24.6307 51.8647 23.8973 52.7887 23.384C53.7127 22.8707 54.7761 22.614 55.9787 22.614C57.1374 22.614 58.1714 22.8633 59.0807 23.362C60.0047 23.8607 60.7161 24.572 61.2147 25.496C61.7281 26.4053 61.9847 27.454 61.9847 28.642ZM58.7947 27.762C58.7801 26.97 58.4941 26.3393 57.9367 25.87C57.3794 25.386 56.6974 25.144 55.8907 25.144C55.1281 25.144 54.4827 25.3787 53.9547 25.848C53.4414 26.3027 53.1261 26.9407 53.0087 27.762H58.7947ZM79.3688 22.636C80.8648 22.636 82.0675 23.098 82.9768 24.022C83.9008 24.9313 84.3628 26.2073 84.3628 27.85V35H81.2828V28.268C81.2828 27.3147 81.0408 26.5887 80.5568 26.09C80.0728 25.5767 79.4128 25.32 78.5768 25.32C77.7408 25.32 77.0735 25.5767 76.5748 26.09C76.0908 26.5887 75.8488 27.3147 75.8488 28.268V35H72.7688V28.268C72.7688 27.3147 72.5268 26.5887 72.0428 26.09C71.5588 25.5767 70.8988 25.32 70.0628 25.32C69.2122 25.32 68.5375 25.5767 68.0388 26.09C67.5548 26.5887 67.3128 27.3147 67.3128 28.268V35H64.2328V22.812H67.3128V24.286C67.7088 23.7727 68.2148 23.3693 68.8308 23.076C69.4615 22.7827 70.1508 22.636 70.8988 22.636C71.8522 22.636 72.7028 22.8413 73.4508 23.252C74.1988 23.648 74.7782 24.22 75.1888 24.968C75.5848 24.264 76.1568 23.6993 76.9048 23.274C77.6675 22.8487 78.4888 22.636 79.3688 22.636ZM96.6576 25.848V28.444H87.3296V25.848H96.6576ZM105.194 32.162L108.274 22.812H111.552L107.042 35H103.302L98.8138 22.812H102.114L105.194 32.162ZM114.844 21.36C114.301 21.36 113.846 21.1913 113.48 20.854C113.128 20.502 112.952 20.0693 112.952 19.556C112.952 19.0427 113.128 18.6173 113.48 18.28C113.846 17.928 114.301 17.752 114.844 17.752C115.386 17.752 115.834 17.928 116.186 18.28C116.552 18.6173 116.736 19.0427 116.736 19.556C116.736 20.0693 116.552 20.502 116.186 20.854C115.834 21.1913 115.386 21.36 114.844 21.36ZM116.362 22.812V35H113.282V22.812H116.362ZM126.159 22.636C127.611 22.636 128.784 23.098 129.679 24.022C130.573 24.9313 131.021 26.2073 131.021 27.85V35H127.941V28.268C127.941 27.3 127.699 26.5593 127.215 26.046C126.731 25.518 126.071 25.254 125.235 25.254C124.384 25.254 123.709 25.518 123.211 26.046C122.727 26.5593 122.485 27.3 122.485 28.268V35H119.405V22.812H122.485V24.33C122.895 23.802 123.416 23.3913 124.047 23.098C124.692 22.79 125.396 22.636 126.159 22.636ZM133.158 28.862C133.158 27.63 133.4 26.5373 133.884 25.584C134.382 24.6307 135.057 23.8973 135.908 23.384C136.758 22.8707 137.704 22.614 138.746 22.614C139.538 22.614 140.293 22.79 141.012 23.142C141.73 23.4793 142.302 23.934 142.728 24.506V18.72H145.852V35H142.728V33.196C142.346 33.7973 141.811 34.2813 141.122 34.648C140.432 35.0147 139.633 35.198 138.724 35.198C137.697 35.198 136.758 34.934 135.908 34.406C135.057 33.878 134.382 33.1373 133.884 32.184C133.4 31.216 133.158 30.1087 133.158 28.862ZM142.75 28.906C142.75 28.158 142.603 27.52 142.31 26.992C142.016 26.4493 141.62 26.0387 141.122 25.76C140.623 25.4667 140.088 25.32 139.516 25.32C138.944 25.32 138.416 25.4593 137.932 25.738C137.448 26.0167 137.052 26.4273 136.744 26.97C136.45 27.498 136.304 28.1287 136.304 28.862C136.304 29.5953 136.45 30.2407 136.744 30.798C137.052 31.3407 137.448 31.7587 137.932 32.052C138.43 32.3453 138.958 32.492 139.516 32.492C140.088 32.492 140.623 32.3527 141.122 32.074C141.62 31.7807 142.016 31.37 142.31 30.842C142.603 30.2993 142.75 29.654 142.75 28.906ZM154.272 35.198C153.098 35.198 152.042 34.9413 151.104 34.428C150.165 33.9 149.424 33.1593 148.882 32.206C148.354 31.2527 148.09 30.1527 148.09 28.906C148.09 27.6593 148.361 26.5593 148.904 25.606C149.461 24.6527 150.216 23.9193 151.17 23.406C152.123 22.878 153.186 22.614 154.36 22.614C155.533 22.614 156.596 22.878 157.55 23.406C158.503 23.9193 159.251 24.6527 159.794 25.606C160.351 26.5593 160.63 27.6593 160.63 28.906C160.63 30.1527 160.344 31.2527 159.772 32.206C159.214 33.1593 158.452 33.9 157.484 34.428C156.53 34.9413 155.46 35.198 154.272 35.198ZM154.272 32.514C154.829 32.514 155.35 32.382 155.834 32.118C156.332 31.8393 156.728 31.4287 157.022 30.886C157.315 30.3433 157.462 29.6833 157.462 28.906C157.462 27.7473 157.154 26.86 156.538 26.244C155.936 25.6133 155.196 25.298 154.316 25.298C153.436 25.298 152.695 25.6133 152.094 26.244C151.507 26.86 151.214 27.7473 151.214 28.906C151.214 30.0647 151.5 30.9593 152.072 31.59C152.658 32.206 153.392 32.514 154.272 32.514ZM167.339 28.862C167.339 27.63 167.581 26.5373 168.065 25.584C168.564 24.6307 169.231 23.8973 170.067 23.384C170.918 22.8707 171.864 22.614 172.905 22.614C173.815 22.614 174.607 22.7973 175.281 23.164C175.971 23.5307 176.521 23.9927 176.931 24.55V22.812H180.033V35H176.931V33.218C176.535 33.79 175.985 34.2667 175.281 34.648C174.592 35.0147 173.793 35.198 172.883 35.198C171.857 35.198 170.918 34.934 170.067 34.406C169.231 33.878 168.564 33.1373 168.065 32.184C167.581 31.216 167.339 30.1087 167.339 28.862ZM176.931 28.906C176.931 28.158 176.785 27.52 176.491 26.992C176.198 26.4493 175.802 26.0387 175.303 25.76C174.805 25.4667 174.269 25.32 173.697 25.32C173.125 25.32 172.597 25.4593 172.113 25.738C171.629 26.0167 171.233 26.4273 170.925 26.97C170.632 27.498 170.485 28.1287 170.485 28.862C170.485 29.5953 170.632 30.2407 170.925 30.798C171.233 31.3407 171.629 31.7587 172.113 32.052C172.612 32.3453 173.14 32.492 173.697 32.492C174.269 32.492 174.805 32.3527 175.303 32.074C175.802 31.7807 176.198 31.37 176.491 30.842C176.785 30.2993 176.931 29.654 176.931 28.906ZM188.453 35.198C187.28 35.198 186.224 34.9413 185.285 34.428C184.347 33.9 183.606 33.1593 183.063 32.206C182.535 31.2527 182.271 30.1527 182.271 28.906C182.271 27.6593 182.543 26.5593 183.085 25.606C183.643 24.6527 184.398 23.9193 185.351 23.406C186.305 22.878 187.368 22.614 188.541 22.614C189.715 22.614 190.778 22.878 191.731 23.406C192.685 23.9193 193.433 24.6527 193.975 25.606C194.533 26.5593 194.811 27.6593 194.811 28.906C194.811 30.1527 194.525 31.2527 193.953 32.206C193.396 33.1593 192.633 33.9 191.665 34.428C190.712 34.9413 189.641 35.198 188.453 35.198ZM188.453 32.514C189.011 32.514 189.531 32.382 190.015 32.118C190.514 31.8393 190.91 31.4287 191.203 30.886C191.497 30.3433 191.643 29.6833 191.643 28.906C191.643 27.7473 191.335 26.86 190.719 26.244C190.118 25.6133 189.377 25.298 188.497 25.298C187.617 25.298 186.877 25.6133 186.275 26.244C185.689 26.86 185.395 27.7473 185.395 28.906C185.395 30.0647 185.681 30.9593 186.253 31.59C186.84 32.206 187.573 32.514 188.453 32.514ZM205.899 25.342V31.238C205.899 31.6487 205.994 31.9493 206.185 32.14C206.39 32.316 206.728 32.404 207.197 32.404H208.627V35H206.691C204.095 35 202.797 33.7387 202.797 31.216V25.342H201.345V22.812H202.797V19.798H205.899V22.812H208.627V25.342H205.899ZM212.404 21.36C211.862 21.36 211.407 21.1913 211.04 20.854C210.688 20.502 210.512 20.0693 210.512 19.556C210.512 19.0427 210.688 18.6173 211.04 18.28C211.407 17.928 211.862 17.752 212.404 17.752C212.947 17.752 213.394 17.928 213.746 18.28C214.113 18.6173 214.296 19.0427 214.296 19.556C214.296 20.0693 214.113 20.502 213.746 20.854C213.394 21.1913 212.947 21.36 212.404 21.36ZM213.922 22.812V35H210.842V22.812H213.922ZM232.101 22.636C233.597 22.636 234.8 23.098 235.709 24.022C236.633 24.9313 237.095 26.2073 237.095 27.85V35H234.015V28.268C234.015 27.3147 233.773 26.5887 233.289 26.09C232.805 25.5767 232.145 25.32 231.309 25.32C230.473 25.32 229.806 25.5767 229.307 26.09C228.823 26.5887 228.581 27.3147 228.581 28.268V35H225.501V28.268C225.501 27.3147 225.259 26.5887 224.775 26.09C224.291 25.5767 223.631 25.32 222.795 25.32C221.945 25.32 221.27 25.5767 220.771 26.09C220.287 26.5887 220.045 27.3147 220.045 28.268V35H216.965V22.812H220.045V24.286C220.441 23.7727 220.947 23.3693 221.563 23.076C222.194 22.7827 222.883 22.636 223.631 22.636C224.585 22.636 225.435 22.8413 226.183 23.252C226.931 23.648 227.511 24.22 227.921 24.968C228.317 24.264 228.889 23.6993 229.637 23.274C230.4 22.8487 231.221 22.636 232.101 22.636ZM251.348 28.642C251.348 29.082 251.319 29.478 251.26 29.83H242.35C242.423 30.71 242.731 31.3993 243.274 31.898C243.817 32.3967 244.484 32.646 245.276 32.646C246.42 32.646 247.234 32.1547 247.718 31.172H251.04C250.688 32.3453 250.013 33.3133 249.016 34.076C248.019 34.824 246.794 35.198 245.342 35.198C244.169 35.198 243.113 34.9413 242.174 34.428C241.25 33.9 240.524 33.1593 239.996 32.206C239.483 31.2527 239.226 30.1527 239.226 28.906C239.226 27.6447 239.483 26.5373 239.996 25.584C240.509 24.6307 241.228 23.8973 242.152 23.384C243.076 22.8707 244.139 22.614 245.342 22.614C246.501 22.614 247.535 22.8633 248.444 23.362C249.368 23.8607 250.079 24.572 250.578 25.496C251.091 26.4053 251.348 27.454 251.348 28.642ZM248.158 27.762C248.143 26.97 247.857 26.3393 247.3 25.87C246.743 25.386 246.061 25.144 245.254 25.144C244.491 25.144 243.846 25.3787 243.318 25.848C242.805 26.3027 242.489 26.9407 242.372 27.762H248.158ZM258.046 28.862C258.046 27.63 258.288 26.5373 258.772 25.584C259.271 24.6307 259.946 23.8973 260.796 23.384C261.647 22.8707 262.593 22.614 263.634 22.614C264.426 22.614 265.182 22.79 265.9 23.142C266.619 23.4793 267.191 23.934 267.616 24.506V18.72H270.74V35H267.616V33.196C267.235 33.7973 266.7 34.2813 266.01 34.648C265.321 35.0147 264.522 35.198 263.612 35.198C262.586 35.198 261.647 34.934 260.796 34.406C259.946 33.878 259.271 33.1373 258.772 32.184C258.288 31.216 258.046 30.1087 258.046 28.862ZM267.638 28.906C267.638 28.158 267.492 27.52 267.198 26.992C266.905 26.4493 266.509 26.0387 266.01 25.76C265.512 25.4667 264.976 25.32 264.404 25.32C263.832 25.32 263.304 25.4593 262.82 25.738C262.336 26.0167 261.94 26.4273 261.632 26.97C261.339 27.498 261.192 28.1287 261.192 28.862C261.192 29.5953 261.339 30.2407 261.632 30.798C261.94 31.3407 262.336 31.7587 262.82 32.052C263.319 32.3453 263.847 32.492 264.404 32.492C264.976 32.492 265.512 32.3527 266.01 32.074C266.509 31.7807 266.905 31.37 267.198 30.842C267.492 30.2993 267.638 29.654 267.638 28.906ZM285.078 28.642C285.078 29.082 285.049 29.478 284.99 29.83H276.08C276.154 30.71 276.462 31.3993 277.004 31.898C277.547 32.3967 278.214 32.646 279.006 32.646C280.15 32.646 280.964 32.1547 281.448 31.172H284.77C284.418 32.3453 283.744 33.3133 282.746 34.076C281.749 34.824 280.524 35.198 279.072 35.198C277.899 35.198 276.843 34.9413 275.904 34.428C274.98 33.9 274.254 33.1593 273.726 32.206C273.213 31.2527 272.956 30.1527 272.956 28.906C272.956 27.6447 273.213 26.5373 273.726 25.584C274.24 24.6307 274.958 23.8973 275.882 23.384C276.806 22.8707 277.87 22.614 279.072 22.614C280.231 22.614 281.265 22.8633 282.174 23.362C283.098 23.8607 283.81 24.572 284.308 25.496C284.822 26.4053 285.078 27.454 285.078 28.642ZM281.888 27.762C281.874 26.97 281.588 26.3393 281.03 25.87C280.473 25.386 279.791 25.144 278.984 25.144C278.222 25.144 277.576 25.3787 277.048 25.848C276.535 26.3027 276.22 26.9407 276.102 27.762H281.888ZM291.777 28.906C291.777 27.6447 292.033 26.5447 292.547 25.606C293.06 24.6527 293.771 23.9193 294.681 23.406C295.59 22.878 296.631 22.614 297.805 22.614C299.315 22.614 300.562 22.9953 301.545 23.758C302.542 24.506 303.209 25.562 303.547 26.926H300.225C300.049 26.398 299.748 25.9873 299.323 25.694C298.912 25.386 298.399 25.232 297.783 25.232C296.903 25.232 296.206 25.5547 295.693 26.2C295.179 26.8307 294.923 27.7327 294.923 28.906C294.923 30.0647 295.179 30.9667 295.693 31.612C296.206 32.2427 296.903 32.558 297.783 32.558C299.029 32.558 299.843 32.0007 300.225 30.886H303.547C303.209 32.206 302.542 33.2547 301.545 34.032C300.547 34.8093 299.301 35.198 297.805 35.198C296.631 35.198 295.59 34.9413 294.681 34.428C293.771 33.9 293.06 33.1667 292.547 32.228C292.033 31.2747 291.777 30.1673 291.777 28.906ZM311.215 35.198C310.042 35.198 308.986 34.9413 308.047 34.428C307.108 33.9 306.368 33.1593 305.825 32.206C305.297 31.2527 305.033 30.1527 305.033 28.906C305.033 27.6593 305.304 26.5593 305.847 25.606C306.404 24.6527 307.16 23.9193 308.113 23.406C309.066 22.878 310.13 22.614 311.303 22.614C312.476 22.614 313.54 22.878 314.493 23.406C315.446 23.9193 316.194 24.6527 316.737 25.606C317.294 26.5593 317.573 27.6593 317.573 28.906C317.573 30.1527 317.287 31.2527 316.715 32.206C316.158 33.1593 315.395 33.9 314.427 34.428C313.474 34.9413 312.403 35.198 311.215 35.198ZM311.215 32.514C311.772 32.514 312.293 32.382 312.777 32.118C313.276 31.8393 313.672 31.4287 313.965 30.886C314.258 30.3433 314.405 29.6833 314.405 28.906C314.405 27.7473 314.097 26.86 313.481 26.244C312.88 25.6133 312.139 25.298 311.259 25.298C310.379 25.298 309.638 25.6133 309.037 26.244C308.45 26.86 308.157 27.7473 308.157 28.906C308.157 30.0647 308.443 30.9593 309.015 31.59C309.602 32.206 310.335 32.514 311.215 32.514ZM334.968 22.636C336.464 22.636 337.667 23.098 338.576 24.022C339.5 24.9313 339.962 26.2073 339.962 27.85V35H336.882V28.268C336.882 27.3147 336.64 26.5887 336.156 26.09C335.672 25.5767 335.012 25.32 334.176 25.32C333.34 25.32 332.673 25.5767 332.174 26.09C331.69 26.5887 331.448 27.3147 331.448 28.268V35H328.368V28.268C328.368 27.3147 328.126 26.5887 327.642 26.09C327.158 25.5767 326.498 25.32 325.662 25.32C324.812 25.32 324.137 25.5767 323.638 26.09C323.154 26.5887 322.912 27.3147 322.912 28.268V35H319.832V22.812H322.912V24.286C323.308 23.7727 323.814 23.3693 324.43 23.076C325.061 22.7827 325.75 22.636 326.498 22.636C327.452 22.636 328.302 22.8413 329.05 23.252C329.798 23.648 330.378 24.22 330.788 24.968C331.184 24.264 331.756 23.6993 332.504 23.274C333.267 22.8487 334.088 22.636 334.968 22.636ZM345.965 24.572C346.361 24.0147 346.904 23.5527 347.593 23.186C348.297 22.8047 349.097 22.614 349.991 22.614C351.033 22.614 351.971 22.8707 352.807 23.384C353.658 23.8973 354.325 24.6307 354.809 25.584C355.308 26.5227 355.557 27.6153 355.557 28.862C355.557 30.1087 355.308 31.216 354.809 32.184C354.325 33.1373 353.658 33.878 352.807 34.406C351.971 34.934 351.033 35.198 349.991 35.198C349.097 35.198 348.305 35.0147 347.615 34.648C346.941 34.2813 346.391 33.8193 345.965 33.262V40.808H342.885V22.812H345.965V24.572ZM352.411 28.862C352.411 28.1287 352.257 27.498 351.949 26.97C351.656 26.4273 351.26 26.0167 350.761 25.738C350.277 25.4593 349.749 25.32 349.177 25.32C348.62 25.32 348.092 25.4667 347.593 25.76C347.109 26.0387 346.713 26.4493 346.405 26.992C346.112 27.5347 345.965 28.1727 345.965 28.906C345.965 29.6393 346.112 30.2773 346.405 30.82C346.713 31.3627 347.109 31.7807 347.593 32.074C348.092 32.3527 348.62 32.492 349.177 32.492C349.749 32.492 350.277 32.3453 350.761 32.052C351.26 31.7587 351.656 31.3407 351.949 30.798C352.257 30.2553 352.411 29.61 352.411 28.862ZM360.875 24.704C361.271 24.0587 361.785 23.5527 362.415 23.186C363.061 22.8193 363.794 22.636 364.615 22.636V25.87H363.801C362.833 25.87 362.1 26.0973 361.601 26.552C361.117 27.0067 360.875 27.7987 360.875 28.928V35H357.795V22.812H360.875V24.704ZM365.898 28.862C365.898 27.63 366.14 26.5373 366.624 25.584C367.123 24.6307 367.79 23.8973 368.626 23.384C369.477 22.8707 370.423 22.614 371.464 22.614C372.373 22.614 373.165 22.7973 373.84 23.164C374.529 23.5307 375.079 23.9927 375.49 24.55V22.812H378.592V35H375.49V33.218C375.094 33.79 374.544 34.2667 373.84 34.648C373.151 35.0147 372.351 35.198 371.442 35.198C370.415 35.198 369.477 34.934 368.626 34.406C367.79 33.878 367.123 33.1373 366.624 32.184C366.14 31.216 365.898 30.1087 365.898 28.862ZM375.49 28.906C375.49 28.158 375.343 27.52 375.05 26.992C374.757 26.4493 374.361 26.0387 373.862 25.76C373.363 25.4667 372.828 25.32 372.256 25.32C371.684 25.32 371.156 25.4593 370.672 25.738C370.188 26.0167 369.792 26.4273 369.484 26.97C369.191 27.498 369.044 28.1287 369.044 28.862C369.044 29.5953 369.191 30.2407 369.484 30.798C369.792 31.3407 370.188 31.7587 370.672 32.052C371.171 32.3453 371.699 32.492 372.256 32.492C372.828 32.492 373.363 32.3527 373.862 32.074C374.361 31.7807 374.757 31.37 375.05 30.842C375.343 30.2993 375.49 29.654 375.49 28.906ZM386.264 35.198C385.267 35.198 384.372 35.022 383.58 34.67C382.788 34.3033 382.157 33.812 381.688 33.196C381.233 32.58 380.984 31.898 380.94 31.15H384.042C384.101 31.6193 384.328 32.008 384.724 32.316C385.135 32.624 385.641 32.778 386.242 32.778C386.829 32.778 387.283 32.6607 387.606 32.426C387.943 32.1913 388.112 31.8907 388.112 31.524C388.112 31.128 387.907 30.8347 387.496 30.644C387.1 30.4387 386.462 30.2187 385.582 29.984C384.673 29.764 383.925 29.5367 383.338 29.302C382.766 29.0673 382.267 28.708 381.842 28.224C381.431 27.74 381.226 27.0873 381.226 26.266C381.226 25.5913 381.417 24.9753 381.798 24.418C382.194 23.8607 382.751 23.4207 383.47 23.098C384.203 22.7753 385.061 22.614 386.044 22.614C387.496 22.614 388.655 22.9807 389.52 23.714C390.385 24.4327 390.862 25.408 390.95 26.64H388.002C387.958 26.156 387.753 25.7747 387.386 25.496C387.034 25.2027 386.557 25.056 385.956 25.056C385.399 25.056 384.966 25.1587 384.658 25.364C384.365 25.5693 384.218 25.8553 384.218 26.222C384.218 26.6327 384.423 26.948 384.834 27.168C385.245 27.3733 385.883 27.586 386.748 27.806C387.628 28.026 388.354 28.2533 388.926 28.488C389.498 28.7227 389.989 29.0893 390.4 29.588C390.825 30.072 391.045 30.7173 391.06 31.524C391.06 32.228 390.862 32.8587 390.466 33.416C390.085 33.9733 389.527 34.4133 388.794 34.736C388.075 35.044 387.232 35.198 386.264 35.198ZM397.57 19.38L397.218 30.006H394.622L394.248 19.38H397.57ZM395.986 35.154C395.429 35.154 394.967 34.9853 394.6 34.648C394.248 34.296 394.072 33.8633 394.072 33.35C394.072 32.8367 394.248 32.4113 394.6 32.074C394.967 31.722 395.429 31.546 395.986 31.546C396.529 31.546 396.976 31.722 397.328 32.074C397.68 32.4113 397.856 32.8367 397.856 33.35C397.856 33.8633 397.68 34.296 397.328 34.648C396.976 34.9853 396.529 35.154 395.986 35.154Z" fill="#313131"/>
</svg>
