<svg width="287" height="32" viewBox="0 0 287 32" fill="none" xmlns="http://www.w3.org/2000/svg">
<path d="M9.52 31.64C3.30667 31.64 0.2 28.8533 0.2 23.28C0.2 22 0.386667 20.4667 0.76 18.68L1.8 13.64C2.73333 9.24 4.36 5.98667 6.68 3.88C9.02667 1.74667 12.1067 0.679999 15.92 0.679999C19.12 0.679999 21.4933 1.4 23.04 2.84C24.5867 4.28 25.36 6.28 25.36 8.84C25.36 9.88 25.24 10.9867 25 12.16L24.88 12.6H18.12L18.24 11.88C18.3733 11.1333 18.44 10.5067 18.44 10C18.44 8.88 18.16 8.02667 17.6 7.44C17.04 6.85333 16.12 6.56 14.84 6.56C13.3467 6.56 12.0933 7.06667 11.08 8.08C10.0933 9.06667 9.34667 10.72 8.84 13.04L7.52 19.32C7.30667 20.2533 7.2 21.1467 7.2 22C7.2 24.5333 8.36 25.8 10.68 25.8C13.64 25.8 15.56 24.0267 16.44 20.48L16.6 19.72H23.36L23.28 20.16C22.48 23.7333 20.9467 26.5467 18.68 28.6C16.44 30.6267 13.3867 31.64 9.52 31.64ZM42.8975 6.68C46.8975 6.68 48.8975 8.54667 48.8975 12.28C48.8975 13.2933 48.7642 14.3733 48.4975 15.52L45.1775 31H38.6975L41.7775 16.52C41.8842 16.0133 41.9375 15.5067 41.9375 15C41.9375 13.2133 41.0442 12.32 39.2575 12.32C37.8975 12.32 36.7642 12.8533 35.8575 13.92C34.9508 14.9867 34.3375 16.2933 34.0175 17.84L31.2175 31H24.7375L31.2575 0.399998H37.7375L35.9775 8.6L35.0575 11.28H35.2175C36.1775 9.76 37.3108 8.61333 38.6175 7.84C39.9508 7.06666 41.3775 6.68 42.8975 6.68ZM64.1784 6.68C69.6718 6.68 72.4184 8.86667 72.4184 13.24C72.4184 14.1733 72.2984 15.1867 72.0584 16.28L68.9384 31H62.4584L62.8184 29.32L63.5784 27.4H63.4184C61.6051 30.2267 59.1784 31.64 56.1384 31.64C54.0851 31.64 52.5384 31.1467 51.4984 30.16C50.4851 29.1467 49.9784 27.8 49.9784 26.12C49.9784 25.4533 50.0584 24.76 50.2184 24.04L50.2984 23.64C50.7251 21.6133 51.7784 19.96 53.4584 18.68C55.1651 17.3733 57.4851 16.72 60.4184 16.72C62.2318 16.72 63.8584 17.0133 65.2984 17.6L65.6984 15.72C65.8051 15.1333 65.8584 14.7067 65.8584 14.44C65.8584 12.7067 64.9118 11.84 63.0184 11.84C61.8718 11.84 60.9518 12.1733 60.2584 12.84C59.5918 13.48 59.1518 14.2667 58.9384 15.2L58.8984 15.48H52.6184L52.6584 15.28C53.1918 12.9067 54.4051 10.88 56.2984 9.2C58.1918 7.52 60.8184 6.68 64.1784 6.68ZM59.2984 26.32C60.6584 26.32 61.7651 25.88 62.6184 25C63.4718 24.12 64.0851 22.96 64.4584 21.52C64.0584 21.28 63.4984 21.0667 62.7784 20.88C62.0584 20.6933 61.3651 20.6 60.6984 20.6C59.3651 20.6 58.3918 20.8933 57.7784 21.48C57.1918 22.04 56.8318 22.68 56.6984 23.4L56.6184 23.8C56.5651 24.0667 56.5384 24.2667 56.5384 24.4C56.5384 24.9867 56.7651 25.4533 57.2184 25.8C57.6718 26.1467 58.3651 26.32 59.2984 26.32ZM84.6084 12.72L82.5684 22.4C82.4351 23.0667 82.3684 23.6 82.3684 24C82.3684 24.72 82.5284 25.2533 82.8484 25.6C83.1951 25.9467 83.7151 26.12 84.4084 26.12C85.3418 26.12 86.2218 26.0267 87.0484 25.84L86.6484 30.68C84.8618 31.32 82.9418 31.64 80.8884 31.64C77.2884 31.64 75.4884 29.9467 75.4884 26.56C75.4884 25.76 75.5951 24.8267 75.8084 23.76L78.1284 12.72H75.1684L76.3284 7.32H79.2884L80.4084 2H86.8884L85.7684 7.32H91.0484L89.8884 12.72H84.6084ZM107.114 6.68C109.141 6.68 110.621 7.24 111.554 8.36C112.488 9.48 112.954 11.1067 112.954 13.24C112.954 14.6533 112.741 16.4 112.314 18.48L112.074 19.68C111.248 23.6267 110.008 26.6133 108.354 28.64C106.728 30.64 104.541 31.64 101.794 31.64C100.301 31.64 99.0477 31.2533 98.0344 30.48C97.0477 29.7067 96.421 28.6133 96.1544 27.2H95.9544L95.7544 29.84L95.5144 31H89.0344L95.5544 0.399998H102.034L100.354 8.2L99.3944 11.12H99.5944C100.528 9.62667 101.634 8.52 102.914 7.8C104.194 7.05333 105.594 6.68 107.114 6.68ZM105.834 18.32C106.101 17.12 106.234 16.0933 106.234 15.24C106.234 13.1333 105.314 12.08 103.474 12.08C102.034 12.08 100.901 12.64 100.074 13.76C99.2477 14.8533 98.6477 16.28 98.2744 18.04L97.7544 20.4C97.5677 21.3867 97.4744 22.16 97.4744 22.72C97.4744 25.04 98.461 26.2 100.434 26.2C101.901 26.2 102.994 25.6933 103.714 24.68C104.461 23.64 105.061 22.0667 105.514 19.96L105.834 18.32ZM123.011 31.64C120.185 31.64 118.025 30.9733 116.531 29.64C115.065 28.3067 114.331 26.3333 114.331 23.72C114.331 22.5467 114.465 21.3333 114.731 20.08L115.091 18.16C116.638 10.5067 120.785 6.68 127.531 6.68C130.385 6.68 132.545 7.33333 134.011 8.64C135.505 9.94667 136.251 11.92 136.251 14.56C136.251 15.7333 136.118 16.9467 135.851 18.2L135.491 20.12C134.718 23.9867 133.291 26.88 131.211 28.8C129.158 30.6933 126.425 31.64 123.011 31.64ZM123.771 26.2C125.025 26.2 126.065 25.7867 126.891 24.96C127.745 24.1333 128.385 22.8 128.811 20.96L129.571 17.32C129.731 16.52 129.811 15.8267 129.811 15.24C129.811 13.1333 128.811 12.08 126.811 12.08C125.558 12.08 124.505 12.5067 123.651 13.36C122.798 14.1867 122.171 15.52 121.771 17.36L121.011 21C120.851 21.8 120.771 22.4933 120.771 23.08C120.771 25.16 121.771 26.2 123.771 26.2ZM147.968 12.72L145.928 22.4C145.794 23.0667 145.728 23.6 145.728 24C145.728 24.72 145.888 25.2533 146.208 25.6C146.554 25.9467 147.074 26.12 147.768 26.12C148.701 26.12 149.581 26.0267 150.408 25.84L150.008 30.68C148.221 31.32 146.301 31.64 144.248 31.64C140.648 31.64 138.848 29.9467 138.848 26.56C138.848 25.76 138.954 24.8267 139.168 23.76L141.488 12.72H138.528L139.688 7.32H142.648L143.768 2H150.248L149.128 7.32H154.408L153.248 12.72H147.968ZM182.796 31H164.236L170.556 1.28H188.876L187.676 6.96H176.236L174.876 13.2H185.036L183.916 18.56H173.756L172.316 25.28H183.996L182.796 31ZM205.824 17.24L204.704 22.4H188.264L189.344 17.24H205.824ZM208.064 31L214.384 1.28H224.584C227.464 1.28 229.758 1.93333 231.464 3.24C233.198 4.52 234.064 6.38667 234.064 8.84C234.064 9.69333 233.971 10.5333 233.784 11.36L233.624 12.08C232.851 15.68 231.464 18.3467 229.464 20.08C227.464 21.8133 224.718 22.68 221.224 22.68H216.704L214.944 31H208.064ZM221.344 16.96C222.784 16.96 223.944 16.6 224.824 15.88C225.704 15.16 226.344 13.8667 226.744 12L226.904 11.4C227.011 10.8933 227.064 10.4 227.064 9.92C227.064 8.93333 226.771 8.2 226.184 7.72C225.624 7.24 224.758 7 223.584 7H220.024L217.944 16.96H221.344ZM250.07 6.68C250.977 6.68 251.75 6.78667 252.39 7L251.07 13.24C250.377 12.9733 249.563 12.84 248.63 12.84C246.79 12.84 245.243 13.4267 243.99 14.6C242.763 15.7467 241.923 17.3867 241.47 19.52L239.03 31H232.55L237.59 7.32H244.07L243.79 8.6L242.83 11.36H242.99C243.79 9.89333 244.817 8.74667 246.07 7.92C247.35 7.09333 248.683 6.68 250.07 6.68ZM259.183 31.64C256.356 31.64 254.196 30.9733 252.703 29.64C251.236 28.3067 250.503 26.3333 250.503 23.72C250.503 22.5467 250.636 21.3333 250.903 20.08L251.263 18.16C252.81 10.5067 256.956 6.68 263.703 6.68C266.556 6.68 268.716 7.33333 270.183 8.64C271.676 9.94667 272.423 11.92 272.423 14.56C272.423 15.7333 272.29 16.9467 272.023 18.2L271.663 20.12C270.89 23.9867 269.463 26.88 267.383 28.8C265.33 30.6933 262.596 31.64 259.183 31.64ZM259.943 26.2C261.196 26.2 262.236 25.7867 263.063 24.96C263.916 24.1333 264.556 22.8 264.983 20.96L265.743 17.32C265.903 16.52 265.983 15.8267 265.983 15.24C265.983 13.1333 264.983 12.08 262.983 12.08C261.73 12.08 260.676 12.5067 259.823 13.36C258.97 14.1867 258.343 15.52 257.943 17.36L257.183 21C257.023 21.8 256.943 22.4933 256.943 23.08C256.943 25.16 257.943 26.2 259.943 26.2ZM275.82 23.2C276.033 20.8267 276.366 18.3067 276.82 15.64C277.273 12.9467 278.22 8.16 279.66 1.28H286.58C285.14 8.13333 284.073 12.9067 283.38 15.6C282.713 18.2667 281.98 20.8 281.18 23.2H275.82ZM276.7 31.64C275.633 31.64 274.86 31.4667 274.38 31.12C273.926 30.8 273.7 30.28 273.7 29.56C273.7 29.24 273.74 28.9067 273.82 28.56C274.033 27.4667 274.473 26.6667 275.14 26.16C275.806 25.6533 276.766 25.4 278.02 25.4C279.06 25.4 279.82 25.5733 280.3 25.92C280.78 26.2667 281.02 26.8 281.02 27.52C281.02 27.8133 280.98 28.16 280.9 28.56C280.66 29.6533 280.22 30.44 279.58 30.92C278.94 31.4 277.98 31.64 276.7 31.64Z" fill="white"/>
</svg>
